solid Visualization Toolkit generated SLA File
 facet normal 0.049978661533971465 -2.333139111010282e-07 -0.99875028580282177
  outer loop
   vertex 6.4671568870544434 2.6787841320037842 -24.665956497192383
   vertex 9 0 -24.539209365844727
   vertex 7 0 -24.639291763305664
  endloop
 endfacet
 facet normal 0.049978661533971465 -2.333139111010282e-07 0.99875028580282177
  outer loop
   vertex 9 0 24.539209365844727
   vertex 6.4671568870544434 2.6787841320037842 24.665956497192383
   vertex 7 0 24.639291763305664
  endloop
 endfacet
 facet normal 0.98078527337889565 0.19509035732984101 0
  outer loop
   vertex 8.314915657043457 3.4441509246826172 -24.573492050170898
   vertex 9 0 24.539209365844727
   vertex 9 0 -24.539209365844727
  endloop
 endfacet
 facet normal -0.98078529304487616 -0.19509025846227224 0
  outer loop
   vertex 7 0 24.639291763305664
   vertex 6.4671568870544434 2.6787841320037842 -24.665956497192383
   vertex 7 0 -24.639291763305664
  endloop
 endfacet
 facet normal 0.049978983691036066 -2.7964576111001245e-07 -0.99875026968163216
  outer loop
   vertex 6.4671568870544434 2.6787841320037842 -24.665956497192383
   vertex 6.3639612197875977 6.3639612197875977 -24.671121597290039
   vertex 8.314915657043457 3.4441509246826172 -24.573492050170898
  endloop
 endfacet
 facet normal 0.049978537107365488 -2.9218272378077363e-07 0.99875029202925503
  outer loop
   vertex 6.4671568870544434 2.6787841320037842 24.665956497192383
   vertex 6.3639612197875977 6.3639612197875977 24.671121597290039
   vertex 4.9497475624084473 4.9497475624084473 24.741889953613281
  endloop
 endfacet
 facet normal 0.83146966869757644 0.55557014861846432 0
  outer loop
   vertex 6.3639612197875977 6.3639612197875977 -24.671121597290039
   vertex 8.314915657043457 3.4441509246826172 24.573492050170898
   vertex 8.314915657043457 3.4441509246826172 -24.573492050170898
  endloop
 endfacet
 facet normal -0.83146959996386427 -0.55557025148574279 0
  outer loop
   vertex 6.4671568870544434 2.6787841320037842 24.665956497192383
   vertex 4.9497475624084473 4.9497475624084473 -24.741889953613281
   vertex 6.4671568870544434 2.6787841320037842 -24.665956497192383
  endloop
 endfacet
 facet normal 0.049978998270547373 -7.5450071928608675e-07 -0.99875026895180519
  outer loop
   vertex 2.6787841320037842 6.4671568870544434 -24.855533599853516
   vertex 6.3639612197875977 6.3639612197875977 -24.671121597290039
   vertex 4.9497475624084473 4.9497475624084473 -24.741889953613281
  endloop
 endfacet
 facet normal 0.049978998270547373 -7.5450071928608675e-07 0.99875026895180519
  outer loop
   vertex 6.3639612197875977 6.3639612197875977 24.671121597290039
   vertex 2.6787841320037842 6.4671568870544434 24.855533599853516
   vertex 4.9497475624084473 4.9497475624084473 24.741889953613281
  endloop
 endfacet
 facet normal 0.55557014861846432 0.83146966869757644 0
  outer loop
   vertex 3.4441509246826172 8.314915657043457 -24.817234039306641
   vertex 6.3639612197875977 6.3639612197875977 24.671121597290039
   vertex 6.3639612197875977 6.3639612197875977 -24.671121597290039
  endloop
 endfacet
 facet normal -0.55557025148574279 -0.83146959996386427 0
  outer loop
   vertex 4.9497475624084473 4.9497475624084473 24.741889953613281
   vertex 2.6787841320037842 6.4671568870544434 -24.855533599853516
   vertex 4.9497475624084473 4.9497475624084473 -24.741889953613281
  endloop
 endfacet
 facet normal 0.049978761358725358 -2.096768260745424e-07 -0.99875028080747175
  outer loop
   vertex 2.6787841320037842 6.4671568870544434 -24.855533599853516
   vertex 5.5109107042843573e-16 9 -24.989583969116211
   vertex 3.4441509246826172 8.314915657043457 -24.817234039306641
  endloop
 endfacet
 facet normal 0.049978959117075887 -3.0603287489104884e-18 0.99875027091138935
  outer loop
   vertex 2.6787841320037842 6.4671568870544434 24.855533599853516
   vertex 5.5109107042843573e-16 9 24.989583969116211
   vertex 4.2862638516991895e-16 7 24.989583969116211
  endloop
 endfacet
 facet normal 0.19509035732984104 0.98078527337889565 0
  outer loop
   vertex 5.5109107042843573e-16 9 -24.989583969116211
   vertex 3.4441509246826172 8.314915657043457 24.817234039306641
   vertex 3.4441509246826172 8.314915657043457 -24.817234039306641
  endloop
 endfacet
 facet normal -0.19509025846227229 -0.98078529304487627 0
  outer loop
   vertex 2.6787841320037842 6.4671568870544434 24.855533599853516
   vertex 4.2862638516991895e-16 7 -24.989583969116211
   vertex 2.6787841320037842 6.4671568870544434 -24.855533599853516
  endloop
 endfacet
 facet normal 0.04997966847115734 -3.0603721843226492e-18 -0.99875023541399643
  outer loop
   vertex -2.6787841320037842 6.4671568870544434 -25.123636245727539
   vertex 5.5109107042843573e-16 9 -24.989583969116211
   vertex 4.2862638516991895e-16 7 -24.989583969116211
  endloop
 endfacet
 facet normal 0.04997966847115734 0 0.99875023541399643
  outer loop
   vertex 5.5109107042843573e-16 9 24.989583969116211
   vertex -2.6787841320037842 6.4671568870544434 25.123636245727539
   vertex 4.2862638516991895e-16 7 24.989583969116211
  endloop
 endfacet
 facet normal -0.19509035732984095 0.98078527337889565 0
  outer loop
   vertex -3.4441509246826172 8.314915657043457 -25.161935806274414
   vertex 5.5109107042843573e-16 9 24.989583969116211
   vertex 5.5109107042843573e-16 9 -24.989583969116211
  endloop
 endfacet
 facet normal 0.19509025846227221 -0.98078529304487627 0
  outer loop
   vertex 4.2862638516991895e-16 7 24.989583969116211
   vertex -2.6787841320037842 6.4671568870544434 -25.123636245727539
   vertex 4.2862638516991895e-16 7 -24.989583969116211
  endloop
 endfacet
 facet normal 0.049979010598128128 3.1317369474917703e-07 -0.9987502683351499
  outer loop
   vertex -2.6787841320037842 6.4671568870544434 -25.123636245727539
   vertex -6.3639612197875977 6.3639612197875977 -25.308048248291016
   vertex -3.4441509246826172 8.314915657043457 -25.161935806274414
  endloop
 endfacet
 facet normal 0.049979034871687859 -5.5582004134037765e-07 0.99875026712035753
  outer loop
   vertex -2.6787841320037842 6.4671568870544434 25.123636245727539
   vertex -6.3639612197875977 6.3639612197875977 25.308048248291016
   vertex -4.9497475624084473 4.9497475624084473 25.237277984619141
  endloop
 endfacet
 facet normal -0.55557014861846421 0.83146966869757644 0
  outer loop
   vertex -6.3639612197875977 6.3639612197875977 -25.308048248291016
   vertex -3.4441509246826172 8.314915657043457 25.161935806274414
   vertex -3.4441509246826172 8.314915657043457 -25.161935806274414
  endloop
 endfacet
 facet normal 0.55557025148574279 -0.83146959996386427 0
  outer loop
   vertex -2.6787841320037842 6.4671568870544434 25.123636245727539
   vertex -4.9497475624084473 4.9497475624084473 -25.237277984619141
   vertex -2.6787841320037842 6.4671568870544434 -25.123636245727539
  endloop
 endfacet
 facet normal 0.049979342565966589 -2.4735524245280037e-07 -0.9987502517229282
  outer loop
   vertex -6.4671568870544434 2.6787841320037842 -25.313211441040039
   vertex -6.3639612197875977 6.3639612197875977 -25.308048248291016
   vertex -4.9497475624084473 4.9497475624084473 -25.237277984619141
  endloop
 endfacet
 facet normal 0.049979342565966589 -2.4735524245280037e-07 0.9987502517229282
  outer loop
   vertex -6.3639612197875977 6.3639612197875977 25.308048248291016
   vertex -6.4671568870544434 2.6787841320037842 25.313211441040039
   vertex -4.9497475624084473 4.9497475624084473 25.237277984619141
  endloop
 endfacet
 facet normal -0.83146966869757655 0.55557014861846432 0
  outer loop
   vertex -8.314915657043457 3.4441509246826172 -25.405677795410156
   vertex -6.3639612197875977 6.3639612197875977 25.308048248291016
   vertex -6.3639612197875977 6.3639612197875977 -25.308048248291016
  endloop
 endfacet
 facet normal 0.83146959996386427 -0.55557025148574279 0
  outer loop
   vertex -4.9497475624084473 4.9497475624084473 25.237277984619141
   vertex -6.4671568870544434 2.6787841320037842 -25.313211441040039
   vertex -4.9497475624084473 4.9497475624084473 -25.237277984619141
  endloop
 endfacet
 facet normal 0.04997982937480043 -1.6253729404357035e-07 -0.99875022736199637
  outer loop
   vertex -6.4671568870544434 2.6787841320037842 -25.313211441040039
   vertex -9 1.1021821408568715e-15 -25.439960479736328
   vertex -8.314915657043457 3.4441509246826172 -25.405677795410156
  endloop
 endfacet
 facet normal 0.049979611637226792 4.3853424993623902e-08 0.9987502382580894
  outer loop
   vertex -6.4671568870544434 2.6787841320037842 25.313211441040039
   vertex -9 1.1021821408568715e-15 25.439960479736328
   vertex -7 8.572527703398379e-16 25.339876174926758
  endloop
 endfacet
 facet normal -0.98078527337889543 0.19509035732984104 0
  outer loop
   vertex -9 1.1021821408568715e-15 -25.439960479736328
   vertex -8.314915657043457 3.4441509246826172 25.405677795410156
   vertex -8.314915657043457 3.4441509246826172 -25.405677795410156
  endloop
 endfacet
 facet normal 0.98078529304487627 -0.19509025846227232 0
  outer loop
   vertex -6.4671568870544434 2.6787841320037842 25.313211441040039
   vertex -7 8.572527703398379e-16 -25.339876174926758
   vertex -6.4671568870544434 2.6787841320037842 -25.313211441040039
  endloop
 endfacet
 facet normal 0.049979611637226494 1.1911813118906345e-07 -0.99875023825808329
  outer loop
   vertex -7 8.572527703398379e-16 -25.339876174926758
   vertex -8.314915657043457 -3.4441509246826172 -25.405677795410156
   vertex -9 1.1021821408568715e-15 -25.439960479736328
  endloop
 endfacet
 facet normal 0.049979891585538207 1.1971186246587229e-08 0.99875022424883475
  outer loop
   vertex -7 8.572527703398379e-16 25.339876174926758
   vertex -8.314915657043457 -3.4441509246826172 25.405677795410156
   vertex -6.4671568870544434 -2.6787841320037842 25.313211441040039
  endloop
 endfacet
 facet normal -0.98078527337889554 -0.19509035732984092 -0
  outer loop
   vertex -8.314915657043457 -3.4441509246826172 -25.405677795410156
   vertex -9 1.1021821408568715e-15 25.439960479736328
   vertex -9 1.1021821408568715e-15 -25.439960479736328
  endloop
 endfacet
 facet normal 0.98078529304487627 0.19509025846227215 0
  outer loop
   vertex -7 8.572527703398379e-16 25.339876174926758
   vertex -6.4671568870544434 -2.6787841320037842 -25.313211441040039
   vertex -7 8.572527703398379e-16 -25.339876174926758
  endloop
 endfacet
 facet normal 0.049979789149807906 2.5989219886582566e-07 -0.99875022937492886
  outer loop
   vertex -6.4671568870544434 -2.6787841320037842 -25.313211441040039
   vertex -6.3639612197875977 -6.3639612197875977 -25.308048248291016
   vertex -8.314915657043457 -3.4441509246826172 -25.405677795410156
  endloop
 endfacet
 facet normal 0.049979342565966589 2.4735524245280037e-07 0.9987502517229282
  outer loop
   vertex -6.4671568870544434 -2.6787841320037842 25.313211441040039
   vertex -6.3639612197875977 -6.3639612197875977 25.308048248291016
   vertex -4.9497475624084473 -4.9497475624084473 25.237277984619141
  endloop
 endfacet
 facet normal -0.83146966869757633 -0.55557014861846421 -0
  outer loop
   vertex -6.3639612197875977 -6.3639612197875977 -25.308048248291016
   vertex -8.314915657043457 -3.4441509246826172 25.405677795410156
   vertex -8.314915657043457 -3.4441509246826172 -25.405677795410156
  endloop
 endfacet
 facet normal 0.83146959996386427 0.55557025148574279 0
  outer loop
   vertex -6.4671568870544434 -2.6787841320037842 25.313211441040039
   vertex -4.9497475624084473 -4.9497475624084473 -25.237277984619141
   vertex -6.4671568870544434 -2.6787841320037842 -25.313211441040039
  endloop
 endfacet
 facet normal 0.049979034871687859 5.5582004134037765e-07 -0.99875026712035753
  outer loop
   vertex -2.6787841320037842 -6.4671568870544434 -25.123636245727539
   vertex -6.3639612197875977 -6.3639612197875977 -25.308048248291016
   vertex -4.9497475624084473 -4.9497475624084473 -25.237277984619141
  endloop
 endfacet
 facet normal 0.049979034871687859 5.5582004134037765e-07 0.99875026712035753
  outer loop
   vertex -6.3639612197875977 -6.3639612197875977 25.308048248291016
   vertex -2.6787841320037842 -6.4671568870544434 25.123636245727539
   vertex -4.9497475624084473 -4.9497475624084473 25.237277984619141
  endloop
 endfacet
 facet normal -0.55557014861846432 -0.83146966869757655 -0
  outer loop
   vertex -3.4441509246826172 -8.314915657043457 -25.161935806274414
   vertex -6.3639612197875977 -6.3639612197875977 25.308048248291016
   vertex -6.3639612197875977 -6.3639612197875977 -25.308048248291016
  endloop
 endfacet
 facet normal 0.55557025148574279 0.83146959996386427 0
  outer loop
   vertex -4.9497475624084473 -4.9497475624084473 25.237277984619141
   vertex -2.6787841320037842 -6.4671568870544434 -25.123636245727539
   vertex -4.9497475624084473 -4.9497475624084473 -25.237277984619141
  endloop
 endfacet
 facet normal 0.04997927108141903 -4.213395989069661e-07 -0.99875025530008876
  outer loop
   vertex -2.6787841320037842 -6.4671568870544434 -25.123636245727539
   vertex -1.6532732112853072e-15 -9 -24.989583969116211
   vertex -3.4441509246826172 -8.314915657043457 -25.161935806274414
  endloop
 endfacet
 facet normal 0.049979668471157368 -9.1811172144433574e-18 0.99875023541399643
  outer loop
   vertex -2.6787841320037842 -6.4671568870544434 25.123636245727539
   vertex -1.6532732112853072e-15 -9 24.989583969116211
   vertex -1.2858791290399772e-15 -7 24.989583969116211
  endloop
 endfacet
 facet normal -0.19509035732984109 -0.98078527337889554 -0
  outer loop
   vertex -1.6532732112853072e-15 -9 -24.989583969116211
   vertex -3.4441509246826172 -8.314915657043457 25.161935806274414
   vertex -3.4441509246826172 -8.314915657043457 -25.161935806274414
  endloop
 endfacet
 facet normal 0.19509025846227232 0.98078529304487627 0
  outer loop
   vertex -2.6787841320037842 -6.4671568870544434 25.123636245727539
   vertex -1.2858791290399772e-15 -7 -24.989583969116211
   vertex -2.6787841320037842 -6.4671568870544434 -25.123636245727539
  endloop
 endfacet
 facet normal 0.049978802961868254 -1.6097371740382619e-17 -0.9987502787256175
  outer loop
   vertex -1.2858791290399772e-15 -7 -24.989583969116211
   vertex 3.4441509246826172 -8.314915657043457 -24.817234039306641
   vertex -1.6532732112853072e-15 -9 -24.989583969116211
  endloop
 endfacet
 facet normal 0.049978905627349079 2.6958449152136063e-07 0.99875027358805757
  outer loop
   vertex -1.2858791290399772e-15 -7 24.989583969116211
   vertex 3.4441509246826172 -8.314915657043457 24.817234039306641
   vertex 2.6787841320037842 -6.4671568870544434 24.855533599853516
  endloop
 endfacet
 facet normal 0.1950903573298409 -0.98078527337889565 0
  outer loop
   vertex 3.4441509246826172 -8.314915657043457 -24.817234039306641
   vertex -1.6532732112853072e-15 -9 24.989583969116211
   vertex -1.6532732112853072e-15 -9 -24.989583969116211
  endloop
 endfacet
 facet normal -0.19509025846227218 0.98078529304487627 0
  outer loop
   vertex -1.2858791290399772e-15 -7 24.989583969116211
   vertex 2.6787841320037842 -6.4671568870544434 -24.855533599853516
   vertex -1.2858791290399772e-15 -7 -24.989583969116211
  endloop
 endfacet
 facet normal 0.049979231328113952 4.048320056528683e-07 -0.99875025728942224
  outer loop
   vertex 4.9497475624084473 -4.9497475624084473 -24.741889953613281
   vertex 3.4441509246826172 -8.314915657043457 -24.817234039306641
   vertex 2.6787841320037842 -6.4671568870544434 -24.855533599853516
  endloop
 endfacet
 facet normal 0.049979231328113952 4.048320056528683e-07 0.99875025728942224
  outer loop
   vertex 3.4441509246826172 -8.314915657043457 24.817234039306641
   vertex 4.9497475624084473 -4.9497475624084473 24.741889953613281
   vertex 2.6787841320037842 -6.4671568870544434 24.855533599853516
  endloop
 endfacet
 facet normal 0.55557014861846421 -0.83146966869757633 0
  outer loop
   vertex 6.3639612197875977 -6.3639612197875977 -24.671121597290039
   vertex 3.4441509246826172 -8.314915657043457 24.817234039306641
   vertex 3.4441509246826172 -8.314915657043457 -24.817234039306641
  endloop
 endfacet
 facet normal -0.55557025148574279 0.83146959996386427 0
  outer loop
   vertex 2.6787841320037842 -6.4671568870544434 24.855533599853516
   vertex 4.9497475624084473 -4.9497475624084473 -24.741889953613281
   vertex 2.6787841320037842 -6.4671568870544434 -24.855533599853516
  endloop
 endfacet
 facet normal 0.049978537107365488 2.9218272378077363e-07 -0.99875029202925503
  outer loop
   vertex 6.4671568870544434 -2.6787841320037842 -24.665956497192383
   vertex 6.3639612197875977 -6.3639612197875977 -24.671121597290039
   vertex 4.9497475624084473 -4.9497475624084473 -24.741889953613281
  endloop
 endfacet
 facet normal 0.049978537107365488 2.9218272378077363e-07 0.99875029202925503
  outer loop
   vertex 6.3639612197875977 -6.3639612197875977 24.671121597290039
   vertex 6.4671568870544434 -2.6787841320037842 24.665956497192383
   vertex 4.9497475624084473 -4.9497475624084473 24.741889953613281
  endloop
 endfacet
 facet normal 0.83146966869757644 -0.55557014861846432 0
  outer loop
   vertex 8.314915657043457 -3.4441509246826172 -24.573492050170898
   vertex 6.3639612197875977 -6.3639612197875977 24.671121597290039
   vertex 6.3639612197875977 -6.3639612197875977 -24.671121597290039
  endloop
 endfacet
 facet normal -0.83146959996386427 0.55557025148574279 0
  outer loop
   vertex 4.9497475624084473 -4.9497475624084473 24.741889953613281
   vertex 6.4671568870544434 -2.6787841320037842 -24.665956497192383
   vertex 4.9497475624084473 -4.9497475624084473 -24.741889953613281
  endloop
 endfacet
 facet normal 0.049978879271444815 2.692330657772008e-08 -0.99875027490698076
  outer loop
   vertex 6.4671568870544434 -2.6787841320037842 -24.665956497192383
   vertex 9 0 -24.539209365844727
   vertex 8.314915657043457 -3.4441509246826172 -24.573492050170898
  endloop
 endfacet
 facet normal 0.049978661533971465 2.333139111010282e-07 0.99875028580282177
  outer loop
   vertex 6.4671568870544434 -2.6787841320037842 24.665956497192383
   vertex 9 0 24.539209365844727
   vertex 7 0 24.639291763305664
  endloop
 endfacet
 facet normal 0.98078527337889554 -0.19509035732984098 0
  outer loop
   vertex 9 0 -24.539209365844727
   vertex 8.314915657043457 -3.4441509246826172 24.573492050170898
   vertex 8.314915657043457 -3.4441509246826172 -24.573492050170898
  endloop
 endfacet
 facet normal -0.98078529304487616 0.19509025846227224 0
  outer loop
   vertex 6.4671568870544434 -2.6787841320037842 24.665956497192383
   vertex 7 0 -24.639291763305664
   vertex 6.4671568870544434 -2.6787841320037842 -24.665956497192383
  endloop
 endfacet
 facet normal 0.049978879271444815 -2.692330657772008e-08 -0.99875027490698076
  outer loop
   vertex 9 0 -24.539209365844727
   vertex 6.4671568870544434 2.6787841320037842 -24.665956497192383
   vertex 8.314915657043457 3.4441509246826172 -24.573492050170898
  endloop
 endfacet
 facet normal 0.049978879271444815 -2.692330657772008e-08 0.99875027490698076
  outer loop
   vertex 6.4671568870544434 2.6787841320037842 24.665956497192383
   vertex 9 0 24.539209365844727
   vertex 8.314915657043457 3.4441509246826172 24.573492050170898
  endloop
 endfacet
 facet normal 0.98078527337889554 0.19509035732984098 -0
  outer loop
   vertex 9 0 24.539209365844727
   vertex 8.314915657043457 3.4441509246826172 -24.573492050170898
   vertex 8.314915657043457 3.4441509246826172 24.573492050170898
  endloop
 endfacet
 facet normal -0.98078529304487616 -0.19509025846227224 0
  outer loop
   vertex 6.4671568870544434 2.6787841320037842 -24.665956497192383
   vertex 7 0 24.639291763305664
   vertex 6.4671568870544434 2.6787841320037842 24.665956497192383
  endloop
 endfacet
 facet normal 0.049978537107365488 -2.9218272378077363e-07 -0.99875029202925503
  outer loop
   vertex 6.3639612197875977 6.3639612197875977 -24.671121597290039
   vertex 6.4671568870544434 2.6787841320037842 -24.665956497192383
   vertex 4.9497475624084473 4.9497475624084473 -24.741889953613281
  endloop
 endfacet
 facet normal 0.049978983691036066 -2.7964576111001245e-07 0.99875026968163216
  outer loop
   vertex 6.3639612197875977 6.3639612197875977 24.671121597290039
   vertex 6.4671568870544434 2.6787841320037842 24.665956497192383
   vertex 8.314915657043457 3.4441509246826172 24.573492050170898
  endloop
 endfacet
 facet normal 0.83146966869757644 0.55557014861846432 -0
  outer loop
   vertex 8.314915657043457 3.4441509246826172 24.573492050170898
   vertex 6.3639612197875977 6.3639612197875977 -24.671121597290039
   vertex 6.3639612197875977 6.3639612197875977 24.671121597290039
  endloop
 endfacet
 facet normal -0.83146959996386427 -0.55557025148574279 0
  outer loop
   vertex 4.9497475624084473 4.9497475624084473 -24.741889953613281
   vertex 6.4671568870544434 2.6787841320037842 24.665956497192383
   vertex 4.9497475624084473 4.9497475624084473 24.741889953613281
  endloop
 endfacet
 facet normal 0.049979010598128128 -3.1317369474917703e-07 -0.9987502683351499
  outer loop
   vertex 6.3639612197875977 6.3639612197875977 -24.671121597290039
   vertex 2.6787841320037842 6.4671568870544434 -24.855533599853516
   vertex 3.4441509246826172 8.314915657043457 -24.817234039306641
  endloop
 endfacet
 facet normal 0.049979010598128128 -3.1317369474917703e-07 0.9987502683351499
  outer loop
   vertex 2.6787841320037842 6.4671568870544434 24.855533599853516
   vertex 6.3639612197875977 6.3639612197875977 24.671121597290039
   vertex 3.4441509246826172 8.314915657043457 24.817234039306641
  endloop
 endfacet
 facet normal 0.55557014861846421 0.83146966869757633 -0
  outer loop
   vertex 6.3639612197875977 6.3639612197875977 24.671121597290039
   vertex 3.4441509246826172 8.314915657043457 -24.817234039306641
   vertex 3.4441509246826172 8.314915657043457 24.817234039306641
  endloop
 endfacet
 facet normal -0.55557025148574279 -0.83146959996386427 0
  outer loop
   vertex 2.6787841320037842 6.4671568870544434 -24.855533599853516
   vertex 4.9497475624084473 4.9497475624084473 24.741889953613281
   vertex 2.6787841320037842 6.4671568870544434 24.855533599853516
  endloop
 endfacet
 facet normal 0.049978959117075887 0 -0.99875027091138935
  outer loop
   vertex 5.5109107042843573e-16 9 -24.989583969116211
   vertex 2.6787841320037842 6.4671568870544434 -24.855533599853516
   vertex 4.2862638516991895e-16 7 -24.989583969116211
  endloop
 endfacet
 facet normal 0.049978761358725352 -2.0967682607655456e-07 0.99875028080747175
  outer loop
   vertex 5.5109107042843573e-16 9 24.989583969116211
   vertex 2.6787841320037842 6.4671568870544434 24.855533599853516
   vertex 3.4441509246826172 8.314915657043457 24.817234039306641
  endloop
 endfacet
 facet normal 0.19509035732984104 0.98078527337889565 -0
  outer loop
   vertex 3.4441509246826172 8.314915657043457 24.817234039306641
   vertex 5.5109107042843573e-16 9 -24.989583969116211
   vertex 5.5109107042843573e-16 9 24.989583969116211
  endloop
 endfacet
 facet normal -0.19509025846227229 -0.98078529304487627 0
  outer loop
   vertex 4.2862638516991895e-16 7 -24.989583969116211
   vertex 2.6787841320037842 6.4671568870544434 24.855533599853516
   vertex 4.2862638516991895e-16 7 24.989583969116211
  endloop
 endfacet
 facet normal 0.049979271081418988 4.2133959888885622e-07 -0.99875025530008865
  outer loop
   vertex 5.5109107042843573e-16 9 -24.989583969116211
   vertex -2.6787841320037842 6.4671568870544434 -25.123636245727539
   vertex -3.4441509246826172 8.314915657043457 -25.161935806274414
  endloop
 endfacet
 facet normal 0.049979271081418988 4.213395988908684e-07 0.99875025530008876
  outer loop
   vertex -2.6787841320037842 6.4671568870544434 25.123636245727539
   vertex 5.5109107042843573e-16 9 24.989583969116211
   vertex -3.4441509246826172 8.314915657043457 25.161935806274414
  endloop
 endfacet
 facet normal -0.19509035732984095 0.98078527337889554 0
  outer loop
   vertex 5.5109107042843573e-16 9 24.989583969116211
   vertex -3.4441509246826172 8.314915657043457 -25.161935806274414
   vertex -3.4441509246826172 8.314915657043457 25.161935806274414
  endloop
 endfacet
 facet normal 0.19509025846227221 -0.98078529304487627 0
  outer loop
   vertex -2.6787841320037842 6.4671568870544434 -25.123636245727539
   vertex 4.2862638516991895e-16 7 24.989583969116211
   vertex -2.6787841320037842 6.4671568870544434 25.123636245727539
  endloop
 endfacet
 facet normal 0.049979034871687859 -5.5582004134037765e-07 -0.99875026712035753
  outer loop
   vertex -6.3639612197875977 6.3639612197875977 -25.308048248291016
   vertex -2.6787841320037842 6.4671568870544434 -25.123636245727539
   vertex -4.9497475624084473 4.9497475624084473 -25.237277984619141
  endloop
 endfacet
 facet normal 0.049979010598128128 3.1317369474917703e-07 0.9987502683351499
  outer loop
   vertex -6.3639612197875977 6.3639612197875977 25.308048248291016
   vertex -2.6787841320037842 6.4671568870544434 25.123636245727539
   vertex -3.4441509246826172 8.314915657043457 25.161935806274414
  endloop
 endfacet
 facet normal -0.55557014861846432 0.83146966869757655 0
  outer loop
   vertex -3.4441509246826172 8.314915657043457 25.161935806274414
   vertex -6.3639612197875977 6.3639612197875977 -25.308048248291016
   vertex -6.3639612197875977 6.3639612197875977 25.308048248291016
  endloop
 endfacet
 facet normal 0.55557025148574279 -0.83146959996386427 0
  outer loop
   vertex -4.9497475624084473 4.9497475624084473 -25.237277984619141
   vertex -2.6787841320037842 6.4671568870544434 25.123636245727539
   vertex -4.9497475624084473 4.9497475624084473 25.237277984619141
  endloop
 endfacet
 facet normal 0.049979789149807906 -2.5989219886582566e-07 -0.99875022937492886
  outer loop
   vertex -6.3639612197875977 6.3639612197875977 -25.308048248291016
   vertex -6.4671568870544434 2.6787841320037842 -25.313211441040039
   vertex -8.314915657043457 3.4441509246826172 -25.405677795410156
  endloop
 endfacet
 facet normal 0.049979789149807906 -2.5989219886582566e-07 0.99875022937492886
  outer loop
   vertex -6.4671568870544434 2.6787841320037842 25.313211441040039
   vertex -6.3639612197875977 6.3639612197875977 25.308048248291016
   vertex -8.314915657043457 3.4441509246826172 25.405677795410156
  endloop
 endfacet
 facet normal -0.83146966869757633 0.55557014861846421 0
  outer loop
   vertex -6.3639612197875977 6.3639612197875977 25.308048248291016
   vertex -8.314915657043457 3.4441509246826172 -25.405677795410156
   vertex -8.314915657043457 3.4441509246826172 25.405677795410156
  endloop
 endfacet
 facet normal 0.83146959996386427 -0.55557025148574279 0
  outer loop
   vertex -6.4671568870544434 2.6787841320037842 -25.313211441040039
   vertex -4.9497475624084473 4.9497475624084473 25.237277984619141
   vertex -6.4671568870544434 2.6787841320037842 25.313211441040039
  endloop
 endfacet
 facet normal 0.049979611637226778 4.3853424993623902e-08 -0.99875023825808917
  outer loop
   vertex -9 1.1021821408568715e-15 -25.439960479736328
   vertex -6.4671568870544434 2.6787841320037842 -25.313211441040039
   vertex -7 8.572527703398379e-16 -25.339876174926758
  endloop
 endfacet
 facet normal 0.049979829374800437 -1.6253729404357037e-07 0.99875022736199637
  outer loop
   vertex -9 1.1021821408568715e-15 25.439960479736328
   vertex -6.4671568870544434 2.6787841320037842 25.313211441040039
   vertex -8.314915657043457 3.4441509246826172 25.405677795410156
  endloop
 endfacet
 facet normal -0.98078527337889554 0.19509035732984106 0
  outer loop
   vertex -8.314915657043457 3.4441509246826172 25.405677795410156
   vertex -9 1.1021821408568715e-15 -25.439960479736328
   vertex -9 1.1021821408568715e-15 25.439960479736328
  endloop
 endfacet
 facet normal 0.98078529304487627 -0.19509025846227232 0
  outer loop
   vertex -7 8.572527703398379e-16 -25.339876174926758
   vertex -6.4671568870544434 2.6787841320037842 25.313211441040039
   vertex -7 8.572527703398379e-16 25.339876174926758
  endloop
 endfacet
 facet normal 0.049979891585538214 1.1971186246587229e-08 -0.99875022424883475
  outer loop
   vertex -8.314915657043457 -3.4441509246826172 -25.405677795410156
   vertex -7 8.572527703398379e-16 -25.339876174926758
   vertex -6.4671568870544434 -2.6787841320037842 -25.313211441040039
  endloop
 endfacet
 facet normal 0.049979611637226494 1.1911813118906345e-07 0.99875023825808329
  outer loop
   vertex -8.314915657043457 -3.4441509246826172 25.405677795410156
   vertex -7 8.572527703398379e-16 25.339876174926758
   vertex -9 1.1021821408568715e-15 25.439960479736328
  endloop
 endfacet
 facet normal -0.98078527337889565 -0.19509035732984095 0
  outer loop
   vertex -9 1.1021821408568715e-15 25.439960479736328
   vertex -8.314915657043457 -3.4441509246826172 -25.405677795410156
   vertex -8.314915657043457 -3.4441509246826172 25.405677795410156
  endloop
 endfacet
 facet normal 0.98078529304487627 0.19509025846227215 0
  outer loop
   vertex -6.4671568870544434 -2.6787841320037842 -25.313211441040039
   vertex -7 8.572527703398379e-16 25.339876174926758
   vertex -6.4671568870544434 -2.6787841320037842 25.313211441040039
  endloop
 endfacet
 facet normal 0.049979342565966589 2.4735524245280037e-07 -0.9987502517229282
  outer loop
   vertex -6.3639612197875977 -6.3639612197875977 -25.308048248291016
   vertex -6.4671568870544434 -2.6787841320037842 -25.313211441040039
   vertex -4.9497475624084473 -4.9497475624084473 -25.237277984619141
  endloop
 endfacet
 facet normal 0.049979789149807906 2.5989219886582566e-07 0.99875022937492886
  outer loop
   vertex -6.3639612197875977 -6.3639612197875977 25.308048248291016
   vertex -6.4671568870544434 -2.6787841320037842 25.313211441040039
   vertex -8.314915657043457 -3.4441509246826172 25.405677795410156
  endloop
 endfacet
 facet normal -0.83146966869757655 -0.55557014861846432 0
  outer loop
   vertex -8.314915657043457 -3.4441509246826172 25.405677795410156
   vertex -6.3639612197875977 -6.3639612197875977 -25.308048248291016
   vertex -6.3639612197875977 -6.3639612197875977 25.308048248291016
  endloop
 endfacet
 facet normal 0.83146959996386427 0.55557025148574279 0
  outer loop
   vertex -4.9497475624084473 -4.9497475624084473 -25.237277984619141
   vertex -6.4671568870544434 -2.6787841320037842 25.313211441040039
   vertex -4.9497475624084473 -4.9497475624084473 25.237277984619141
  endloop
 endfacet
 facet normal 0.049979010598128128 -3.1317369474917703e-07 -0.9987502683351499
  outer loop
   vertex -6.3639612197875977 -6.3639612197875977 -25.308048248291016
   vertex -2.6787841320037842 -6.4671568870544434 -25.123636245727539
   vertex -3.4441509246826172 -8.314915657043457 -25.161935806274414
  endloop
 endfacet
 facet normal 0.049979010598128128 -3.1317369474917703e-07 0.9987502683351499
  outer loop
   vertex -2.6787841320037842 -6.4671568870544434 25.123636245727539
   vertex -6.3639612197875977 -6.3639612197875977 25.308048248291016
   vertex -3.4441509246826172 -8.314915657043457 25.161935806274414
  endloop
 endfacet
 facet normal -0.55557014861846421 -0.83146966869757644 0
  outer loop
   vertex -6.3639612197875977 -6.3639612197875977 25.308048248291016
   vertex -3.4441509246826172 -8.314915657043457 -25.161935806274414
   vertex -3.4441509246826172 -8.314915657043457 25.161935806274414
  endloop
 endfacet
 facet normal 0.55557025148574279 0.83146959996386427 0
  outer loop
   vertex -2.6787841320037842 -6.4671568870544434 -25.123636245727539
   vertex -4.9497475624084473 -4.9497475624084473 25.237277984619141
   vertex -2.6787841320037842 -6.4671568870544434 25.123636245727539
  endloop
 endfacet
 facet normal 0.049979668471157368 -1.034830964876016e-17 -0.99875023541399643
  outer loop
   vertex -1.6532732112853072e-15 -9 -24.989583969116211
   vertex -2.6787841320037842 -6.4671568870544434 -25.123636245727539
   vertex -1.2858791290399772e-15 -7 -24.989583969116211
  endloop
 endfacet
 facet normal 0.049979271081419023 -4.2133959890092956e-07 0.99875025530008876
  outer loop
   vertex -1.6532732112853072e-15 -9 24.989583969116211
   vertex -2.6787841320037842 -6.4671568870544434 25.123636245727539
   vertex -3.4441509246826172 -8.314915657043457 25.161935806274414
  endloop
 endfacet
 facet normal -0.19509035732984109 -0.98078527337889565 0
  outer loop
   vertex -3.4441509246826172 -8.314915657043457 25.161935806274414
   vertex -1.6532732112853072e-15 -9 -24.989583969116211
   vertex -1.6532732112853072e-15 -9 24.989583969116211
  endloop
 endfacet
 facet normal 0.19509025846227235 0.98078529304487627 0
  outer loop
   vertex -1.2858791290399772e-15 -7 -24.989583969116211
   vertex -2.6787841320037842 -6.4671568870544434 25.123636245727539
   vertex -1.2858791290399772e-15 -7 24.989583969116211
  endloop
 endfacet
 facet normal 0.049978905627349079 2.6958449152136063e-07 -0.99875027358805757
  outer loop
   vertex 3.4441509246826172 -8.314915657043457 -24.817234039306641
   vertex -1.2858791290399772e-15 -7 -24.989583969116211
   vertex 2.6787841320037842 -6.4671568870544434 -24.855533599853516
  endloop
 endfacet
 facet normal 0.049978802961868254 -9.1809582229478825e-18 0.9987502787256175
  outer loop
   vertex 3.4441509246826172 -8.314915657043457 24.817234039306641
   vertex -1.2858791290399772e-15 -7 24.989583969116211
   vertex -1.6532732112853072e-15 -9 24.989583969116211
  endloop
 endfacet
 facet normal 0.1950903573298409 -0.98078527337889565 0
  outer loop
   vertex -1.6532732112853072e-15 -9 24.989583969116211
   vertex 3.4441509246826172 -8.314915657043457 -24.817234039306641
   vertex 3.4441509246826172 -8.314915657043457 24.817234039306641
  endloop
 endfacet
 facet normal -0.19509025846227215 0.98078529304487627 0
  outer loop
   vertex 2.6787841320037842 -6.4671568870544434 -24.855533599853516
   vertex -1.2858791290399772e-15 -7 24.989583969116211
   vertex 2.6787841320037842 -6.4671568870544434 24.855533599853516
  endloop
 endfacet
 facet normal 0.049978829331157527 5.8513828036852865e-07 -0.99875027740589117
  outer loop
   vertex 3.4441509246826172 -8.314915657043457 -24.817234039306641
   vertex 4.9497475624084473 -4.9497475624084473 -24.741889953613281
   vertex 6.3639612197875977 -6.3639612197875977 -24.671121597290039
  endloop
 endfacet
 facet normal 0.049978829331157527 5.8513828036852865e-07 0.99875027740589117
  outer loop
   vertex 4.9497475624084473 -4.9497475624084473 24.741889953613281
   vertex 3.4441509246826172 -8.314915657043457 24.817234039306641
   vertex 6.3639612197875977 -6.3639612197875977 24.671121597290039
  endloop
 endfacet
 facet normal 0.55557014861846432 -0.83146966869757644 0
  outer loop
   vertex 3.4441509246826172 -8.314915657043457 24.817234039306641
   vertex 6.3639612197875977 -6.3639612197875977 -24.671121597290039
   vertex 6.3639612197875977 -6.3639612197875977 24.671121597290039
  endloop
 endfacet
 facet normal -0.55557025148574279 0.83146959996386427 0
  outer loop
   vertex 4.9497475624084473 -4.9497475624084473 -24.741889953613281
   vertex 2.6787841320037842 -6.4671568870544434 24.855533599853516
   vertex 4.9497475624084473 -4.9497475624084473 24.741889953613281
  endloop
 endfacet
 facet normal 0.049978983691036066 2.7964576111001245e-07 -0.99875026968163216
  outer loop
   vertex 6.3639612197875977 -6.3639612197875977 -24.671121597290039
   vertex 6.4671568870544434 -2.6787841320037842 -24.665956497192383
   vertex 8.314915657043457 -3.4441509246826172 -24.573492050170898
  endloop
 endfacet
 facet normal 0.049978983691036066 2.7964576111001245e-07 0.99875026968163216
  outer loop
   vertex 6.4671568870544434 -2.6787841320037842 24.665956497192383
   vertex 6.3639612197875977 -6.3639612197875977 24.671121597290039
   vertex 8.314915657043457 -3.4441509246826172 24.573492050170898
  endloop
 endfacet
 facet normal 0.83146966869757644 -0.55557014861846432 0
  outer loop
   vertex 6.3639612197875977 -6.3639612197875977 24.671121597290039
   vertex 8.314915657043457 -3.4441509246826172 -24.573492050170898
   vertex 8.314915657043457 -3.4441509246826172 24.573492050170898
  endloop
 endfacet
 facet normal -0.83146959996386427 0.55557025148574279 0
  outer loop
   vertex 6.4671568870544434 -2.6787841320037842 -24.665956497192383
   vertex 4.9497475624084473 -4.9497475624084473 24.741889953613281
   vertex 6.4671568870544434 -2.6787841320037842 24.665956497192383
  endloop
 endfacet
 facet normal 0.049978661533971465 2.333139111010282e-07 -0.99875028580282177
  outer loop
   vertex 9 0 -24.539209365844727
   vertex 6.4671568870544434 -2.6787841320037842 -24.665956497192383
   vertex 7 0 -24.639291763305664
  endloop
 endfacet
 facet normal 0.049978879271444815 2.692330657772008e-08 0.99875027490698076
  outer loop
   vertex 9 0 24.539209365844727
   vertex 6.4671568870544434 -2.6787841320037842 24.665956497192383
   vertex 8.314915657043457 -3.4441509246826172 24.573492050170898
  endloop
 endfacet
 facet normal 0.98078527337889565 -0.19509035732984101 0
  outer loop
   vertex 8.314915657043457 -3.4441509246826172 24.573492050170898
   vertex 9 0 -24.539209365844727
   vertex 9 0 24.539209365844727
  endloop
 endfacet
 facet normal -0.98078529304487616 0.19509025846227224 0
  outer loop
   vertex 7 0 -24.639291763305664
   vertex 6.4671568870544434 -2.6787841320037842 24.665956497192383
   vertex 7 0 24.639291763305664
  endloop
 endfacet
endsolid
